<svg xmlns="http://www.w3.org/2000/svg" xmlns:xlink="http://www.w3.org/1999/xlink" width="1920" height="1080" viewBox="0 0 1920 1080">
  <defs>
    <clipPath id="clip-웹_1920_1">
      <rect width="1920" height="1080"/>
    </clipPath>
  </defs>
  <g id="웹_1920_1" data-name="웹 1920 – 1" clip-path="url(#clip-웹_1920_1)">
    <rect width="1920" height="1080" fill="#3c50e0"/>
    <g id="Logo" transform="translate(517.887 438)">
      <text id="Memory.log" transform="translate(237.533 143)" fill="#fff" font-size="121" font-family="SegoeUI, Segoe UI"><tspan x="0" y="0">Memory.log</tspan></text>
      <path id="패스_5" data-name="패스 5" d="M-174.128,84.735S-180.15,25.563-108.2,28.964c37.7,1.782,50.525,30.584,46.41,58.758-3.485,23.9-17.882,23.3-22.906,43.023s10.5,33.54,5.444,37.677-56.513,3.861-63.263,1.961-4.582-6.236-3.386-12.533,1.12-16.335,1.12-16.335-18.519,3.1-23.167,2.008-5.609-1.851-7.252-10.266a77.3,77.3,0,0,1-1.121-17.051s-8.664-1.942-11.552-4.581S-187.871,105.649-174.128,84.735Z" transform="translate(232 5.202)" fill="#fff"/>
    </g>
  </g>
</svg>
