<svg xmlns="http://www.w3.org/2000/svg" width="100" height="100" viewBox="0 0 100 100">
  <g id="그룹_43" data-name="그룹 43" transform="translate(610 -6093)">
    <rect id="사각형_55" data-name="사각형 55" width="100" height="100" transform="translate(-610 6093)" fill="#fff"/>
    <g id="그룹_42" data-name="그룹 42" transform="translate(-31.42 252.732)">
      <g id="portfolio" transform="translate(-563 5854.688)">
        <g id="그룹_30" data-name="그룹 30" transform="translate(48.696 34.276)">
          <g id="그룹_29" data-name="그룹 29">
            <path id="패스_14" data-name="패스 14" d="M353.5,251.731a2.545,2.545,0,0,0-.453-.876,2.291,2.291,0,0,0-.757-.609,2.316,2.316,0,0,0-1.061-.23,2.29,2.29,0,0,0-1.076.238,2.213,2.213,0,0,0-.75.631,2.669,2.669,0,0,0-.438.891,3.7,3.7,0,0,0-.141,1.017,3.578,3.578,0,0,0,.149,1.032,2.69,2.69,0,0,0,.445.883,2.248,2.248,0,0,0,.75.624,2.538,2.538,0,0,0,2.16-.007,2.2,2.2,0,0,0,.75-.638,2.752,2.752,0,0,0,.43-.9,3.8,3.8,0,0,0,.141-1.024A3.6,3.6,0,0,0,353.5,251.731Z" transform="translate(-348.827 -250.016)" fill="#7b6ccc"/>
          </g>
        </g>
        <g id="그룹_32" data-name="그룹 32" transform="translate(37.28 23.742)">
          <g id="그룹_31" data-name="그룹 31">
            <path id="패스_15" data-name="패스 15" d="M277.154,172.026a.75.75,0,0,0-.534-.29h-1.752v2.257h1.826a.641.641,0,0,0,.5-.3,1.33,1.33,0,0,0,.23-.831A1.194,1.194,0,0,0,277.154,172.026Z" transform="translate(-274.868 -171.736)" fill="#7b6ccc"/>
          </g>
        </g>
        <g id="그룹_34" data-name="그룹 34" transform="translate(25.856 23.532)">
          <g id="그룹_33" data-name="그룹 33">
            <path id="패스_16" data-name="패스 16" d="M206.571,173.363a2.55,2.55,0,0,0-.453-.876,2.291,2.291,0,0,0-.757-.609,2.317,2.317,0,0,0-1.061-.23,2.289,2.289,0,0,0-1.076.238,2.214,2.214,0,0,0-.75.631,2.67,2.67,0,0,0-.438.891,3.7,3.7,0,0,0-.141,1.017,3.576,3.576,0,0,0,.149,1.032,2.688,2.688,0,0,0,.445.883,2.248,2.248,0,0,0,.75.624,2.538,2.538,0,0,0,2.16-.007,2.2,2.2,0,0,0,.75-.638,2.752,2.752,0,0,0,.43-.9,3.8,3.8,0,0,0,.141-1.024A3.6,3.6,0,0,0,206.571,173.363Z" transform="translate(-201.895 -171.648)" fill="#7b6ccc"/>
          </g>
        </g>
        <g id="그룹_36" data-name="그룹 36" transform="translate(0)">
          <g id="그룹_35" data-name="그룹 35">
            <path id="패스_17" data-name="패스 17" d="M104.4,0H35.557V65.229h6.662v5.93l3.331-1.977,3.331,1.977v-5.93H104.4ZM78.983,21.756h8.434v2.113H84.568V30.58H81.846V23.868H78.983Zm-8.783,0h4.552a3.325,3.325,0,0,1,1.34.267,3.483,3.483,0,0,1,1.054.7,3.232,3.232,0,0,1,.691.982,2.665,2.665,0,0,1,.251,1.112,2.862,2.862,0,0,1-.377,1.436,3.051,3.051,0,0,1-1.048,1.088l2.095,3.244H75.688l-1.746-2.71H72.923v2.71H70.2V21.756Zm-13,13H53.123v1.467h3.323v1.964H53.123v3.281H50.4V32.647h6.8V34.76Zm-.091-7.828a3.152,3.152,0,0,1-1.033.684,3.413,3.413,0,0,1-1.333.255h-1.62v2.71H50.4V21.756h4.273a3.326,3.326,0,0,1,1.341.267,3.482,3.482,0,0,1,1.054.7,3.226,3.226,0,0,1,.691.982,2.666,2.666,0,0,1,.251,1.112,2.857,2.857,0,0,1-.237,1.137A3.152,3.152,0,0,1,57.109,26.933ZM67.491,38.769a4.523,4.523,0,0,1-1.047,1.417,5.207,5.207,0,0,1-1.6.988,5.405,5.405,0,0,1-2.031.373,5.27,5.27,0,0,1-2.053-.385,5.092,5.092,0,0,1-1.578-1.013,4.546,4.546,0,0,1-1.019-1.436,4.017,4.017,0,0,1-.363-1.666,3.923,3.923,0,0,1,.377-1.678,4.455,4.455,0,0,1,1.054-1.423,5.2,5.2,0,0,1,1.606-.982,5.487,5.487,0,0,1,2.032-.367,5.272,5.272,0,0,1,2.053.385A5.042,5.042,0,0,1,66.5,34a4.536,4.536,0,0,1,1.012,1.442,4.065,4.065,0,0,1,.356,1.653A3.888,3.888,0,0,1,67.491,38.769Zm.963-10.892a4.523,4.523,0,0,1-1.047,1.417,5.209,5.209,0,0,1-1.6.988,5.405,5.405,0,0,1-2.032.373,5.274,5.274,0,0,1-2.053-.385,5.094,5.094,0,0,1-1.578-1.013,4.546,4.546,0,0,1-1.019-1.436,4.017,4.017,0,0,1-.363-1.666,3.927,3.927,0,0,1,.377-1.678A4.448,4.448,0,0,1,60.2,23.054a5.2,5.2,0,0,1,1.606-.982,5.487,5.487,0,0,1,2.032-.366,5.273,5.273,0,0,1,2.053.385,5.042,5.042,0,0,1,1.578,1.019,4.536,4.536,0,0,1,1.012,1.442,4.065,4.065,0,0,1,.356,1.653A3.885,3.885,0,0,1,68.455,27.877Zm8,13.6H69.237V32.648H71.96v6.712h4.5Zm3.882,0H77.615V32.648h2.723Zm11.059-2.7a4.523,4.523,0,0,1-1.047,1.417,5.207,5.207,0,0,1-1.6.988,5.4,5.4,0,0,1-2.031.373,5.272,5.272,0,0,1-2.053-.385,5.092,5.092,0,0,1-1.578-1.013,4.546,4.546,0,0,1-1.019-1.436,4.017,4.017,0,0,1-.363-1.666,3.923,3.923,0,0,1,.377-1.678,4.447,4.447,0,0,1,1.054-1.423,5.2,5.2,0,0,1,1.606-.982,5.487,5.487,0,0,1,2.032-.367,5.272,5.272,0,0,1,2.053.385A5.052,5.052,0,0,1,90.406,34a4.536,4.536,0,0,1,1.012,1.442,4.064,4.064,0,0,1,.356,1.653A3.89,3.89,0,0,1,91.4,38.769Z" transform="translate(-35.557)" fill="#7b6ccc"/>
          </g>
        </g>
        <g id="그룹_38" data-name="그룹 38" transform="translate(17.531 23.742)">
          <g id="그룹_37" data-name="그룹 37">
            <path id="패스_18" data-name="패스 18" d="M150.048,171.974a.81.81,0,0,0-.534-.238h-1.455v2.257h1.529a.678.678,0,0,0,.5-.245,1.3,1.3,0,0,0,.23-.883A1.168,1.168,0,0,0,150.048,171.974Z" transform="translate(-148.059 -171.736)" fill="#7b6ccc"/>
          </g>
        </g>
        <g id="그룹_40" data-name="그룹 40" transform="translate(24.897 34.276)">
          <g id="그룹_39" data-name="그룹 39">
            <path id="패스_19" data-name="패스 19" d="M200.4,251.731a2.545,2.545,0,0,0-.453-.876,2.291,2.291,0,0,0-.757-.609,2.316,2.316,0,0,0-1.061-.23,2.289,2.289,0,0,0-1.076.238,2.214,2.214,0,0,0-.75.631,2.673,2.673,0,0,0-.438.891,3.7,3.7,0,0,0-.141,1.017,3.577,3.577,0,0,0,.149,1.032,2.691,2.691,0,0,0,.445.883,2.248,2.248,0,0,0,.75.624,2.538,2.538,0,0,0,2.16-.007,2.2,2.2,0,0,0,.75-.638,2.751,2.751,0,0,0,.43-.9,3.8,3.8,0,0,0,.141-1.024A3.6,3.6,0,0,0,200.4,251.731Z" transform="translate(-195.725 -250.016)" fill="#7b6ccc"/>
          </g>
        </g>
      </g>
      <g id="그룹_28" data-name="그룹 28" transform="translate(-555.032 5861.743)">
        <rect id="사각형_54" data-name="사각형 54" width="51.793" height="51.793" transform="translate(1.328 0)" fill="#7b6ccc"/>
        <text id="I_Port" data-name="I`Port" transform="translate(49.225 29.897)" fill="#fff" font-size="13" font-family="NanumSquare_acB, NanumSquare_ac" letter-spacing="0.1em"><tspan x="-44.122" y="0">I`Port</tspan></text>
      </g>
    </g>
  </g>
</svg>
