<svg id="portfolio" xmlns="http://www.w3.org/2000/svg" width="43.947" height="47.936" viewBox="0 0 43.947 47.936">
  <g id="그룹_30" data-name="그룹 30" transform="translate(30.958 23.09)">
    <g id="그룹_29" data-name="그룹 29">
      <path id="패스_14" data-name="패스 14" d="M351.977,251.171a1.714,1.714,0,0,0-.305-.59,1.544,1.544,0,0,0-.51-.41,1.56,1.56,0,0,0-.715-.155,1.543,1.543,0,0,0-.725.16,1.491,1.491,0,0,0-.505.425,1.8,1.8,0,0,0-.295.6,2.494,2.494,0,0,0-.1.685,2.41,2.41,0,0,0,.1.695,1.812,1.812,0,0,0,.3.595,1.515,1.515,0,0,0,.505.42,1.71,1.71,0,0,0,1.455-.005,1.481,1.481,0,0,0,.505-.43,1.853,1.853,0,0,0,.29-.605,2.558,2.558,0,0,0,.1-.69A2.426,2.426,0,0,0,351.977,251.171Z" transform="translate(-348.827 -250.016)" fill="#7b6ccc"/>
    </g>
  </g>
  <g id="그룹_32" data-name="그룹 32" transform="translate(23.749 15.994)">
    <g id="그룹_31" data-name="그룹 31">
      <path id="패스_15" data-name="패스 15" d="M276.408,171.931a.5.5,0,0,0-.36-.2h-1.18v1.52h1.23a.432.432,0,0,0,.335-.2.9.9,0,0,0,.155-.56A.8.8,0,0,0,276.408,171.931Z" transform="translate(-274.868 -171.736)" fill="#7b6ccc"/>
    </g>
  </g>
  <g id="그룹_34" data-name="그룹 34" transform="translate(16.438 15.852)">
    <g id="그룹_33" data-name="그룹 33">
      <path id="패스_16" data-name="패스 16" d="M205.045,172.8a1.718,1.718,0,0,0-.305-.59,1.544,1.544,0,0,0-.51-.41,1.561,1.561,0,0,0-.715-.155,1.542,1.542,0,0,0-.725.16,1.492,1.492,0,0,0-.505.425,1.8,1.8,0,0,0-.295.6,2.494,2.494,0,0,0-.1.685,2.41,2.41,0,0,0,.1.695,1.811,1.811,0,0,0,.3.6,1.515,1.515,0,0,0,.505.42,1.71,1.71,0,0,0,1.455-.005,1.481,1.481,0,0,0,.505-.43,1.853,1.853,0,0,0,.29-.605,2.558,2.558,0,0,0,.1-.69A2.423,2.423,0,0,0,205.045,172.8Z" transform="translate(-201.895 -171.648)" fill="#7b6ccc"/>
    </g>
  </g>
  <g id="그룹_36" data-name="그룹 36" transform="translate(0)">
    <g id="그룹_35" data-name="그룹 35">
      <path id="패스_17" data-name="패스 17" d="M79.5,0H35.557V43.941H39.81v3.995L41.936,46.6l2.126,1.332V43.941H79.5ZM63.28,14.656h5.384v1.423H66.846V20.6H65.108V16.079H63.28Zm-5.607,0h2.906a2.027,2.027,0,0,1,.856.18,2.218,2.218,0,0,1,.673.469,2.181,2.181,0,0,1,.441.662,1.879,1.879,0,0,1,.16.749,2.025,2.025,0,0,1-.909,1.7L63.137,20.6H61.176l-1.114-1.825h-.651V20.6H57.673V14.656Zm-8.3,8.761h-2.6V24.4h2.122v1.323H46.771v2.21H45.033V21.993h4.341v1.423Zm-.058-5.273a2.008,2.008,0,0,1-.66.46,2.08,2.08,0,0,1-.851.172H46.771V20.6H45.033V14.656H47.76a2.027,2.027,0,0,1,.856.18,2.217,2.217,0,0,1,.673.469,2.177,2.177,0,0,1,.441.662,1.879,1.879,0,0,1,.16.749,2.016,2.016,0,0,1-.151.766A2.133,2.133,0,0,1,49.316,18.143Zm6.628,7.973a3.042,3.042,0,0,1-.669.955,3.3,3.3,0,0,1-2.318.917,3.213,3.213,0,0,1-2.318-.942,3.066,3.066,0,0,1-.651-.967,2.833,2.833,0,0,1-.232-1.122A2.765,2.765,0,0,1,50,23.826a3,3,0,0,1,.673-.959,3.3,3.3,0,0,1,1.025-.662,3.341,3.341,0,0,1,1.3-.247,3.194,3.194,0,0,1,2.318.946,3.062,3.062,0,0,1,.646.971,2.867,2.867,0,0,1,.227,1.114A2.74,2.74,0,0,1,55.944,26.116Zm.615-7.337a3.042,3.042,0,0,1-.669.955,3.3,3.3,0,0,1-2.318.917,3.213,3.213,0,0,1-2.318-.942,3.066,3.066,0,0,1-.651-.967,2.833,2.833,0,0,1-.232-1.122,2.768,2.768,0,0,1,.241-1.13,2.991,2.991,0,0,1,.673-.959,3.3,3.3,0,0,1,1.025-.662,3.341,3.341,0,0,1,1.3-.247,3.194,3.194,0,0,1,2.318.946,3.062,3.062,0,0,1,.646.971,2.868,2.868,0,0,1,.227,1.114A2.738,2.738,0,0,1,56.559,18.779Zm5.108,9.159H57.058V21.993H58.8v4.521h2.87Zm2.478,0H62.407V21.993h1.738Zm7.06-1.821a3.042,3.042,0,0,1-.669.955,3.3,3.3,0,0,1-2.318.917,3.213,3.213,0,0,1-2.318-.942,3.066,3.066,0,0,1-.651-.967,2.833,2.833,0,0,1-.232-1.122,2.765,2.765,0,0,1,.241-1.13,2.991,2.991,0,0,1,.673-.959,3.3,3.3,0,0,1,1.025-.662,3.341,3.341,0,0,1,1.3-.247,3.194,3.194,0,0,1,2.318.946,3.062,3.062,0,0,1,.646.971,2.867,2.867,0,0,1,.227,1.114A2.741,2.741,0,0,1,71.2,26.116Z" transform="translate(-35.557)" fill="#7b6ccc"/>
    </g>
  </g>
  <g id="그룹_38" data-name="그룹 38" transform="translate(11.171 15.994)">
    <g id="그룹_37" data-name="그룹 37">
      <path id="패스_18" data-name="패스 18" d="M149.4,171.9a.546.546,0,0,0-.36-.16h-.98v1.52h1.03a.457.457,0,0,0,.335-.165.874.874,0,0,0,.155-.595A.787.787,0,0,0,149.4,171.9Z" transform="translate(-148.059 -171.736)" fill="#7b6ccc"/>
    </g>
  </g>
  <g id="그룹_40" data-name="그룹 40" transform="translate(15.828 23.09)">
    <g id="그룹_39" data-name="그룹 39">
      <path id="패스_19" data-name="패스 19" d="M198.875,251.171a1.714,1.714,0,0,0-.305-.59,1.543,1.543,0,0,0-.51-.41,1.56,1.56,0,0,0-.715-.155,1.542,1.542,0,0,0-.725.16,1.491,1.491,0,0,0-.505.425,1.8,1.8,0,0,0-.295.6,2.494,2.494,0,0,0-.1.685,2.409,2.409,0,0,0,.1.695,1.813,1.813,0,0,0,.3.6,1.514,1.514,0,0,0,.505.42,1.71,1.71,0,0,0,1.455-.005,1.481,1.481,0,0,0,.505-.43,1.853,1.853,0,0,0,.29-.605,2.558,2.558,0,0,0,.1-.69A2.426,2.426,0,0,0,198.875,251.171Z" transform="translate(-195.725 -250.016)" fill="#7b6ccc"/>
    </g>
  </g>
</svg>
