<svg xmlns="http://www.w3.org/2000/svg" width="29.739" height="29.739" viewBox="0 0 29.739 29.739">
  <path id="github" d="M14.869.5A15.06,15.06,0,0,0,0,15.747,15.216,15.216,0,0,0,10.167,30.212c.743.144,1.016-.328,1.016-.733,0-.362-.012-1.321-.019-2.592-4.136.919-5.009-2.045-5.009-2.045A4.018,4.018,0,0,0,4.5,22.611c-1.347-.945.1-.926.1-.926a3.125,3.125,0,0,1,2.277,1.571,3.126,3.126,0,0,0,4.331,1.268,3.281,3.281,0,0,1,.942-2.039c-3.3-.381-6.773-1.692-6.773-7.534a5.965,5.965,0,0,1,1.53-4.091,5.549,5.549,0,0,1,.13-4.035s1.245-.409,4.089,1.563a13.684,13.684,0,0,1,7.435,0c2.825-1.972,4.07-1.563,4.07-1.563a5.7,5.7,0,0,1,.149,4.035,5.989,5.989,0,0,1,1.524,4.091c0,5.857-3.476,7.146-6.784,7.521a3.7,3.7,0,0,1,1,2.821c0,2.04-.019,3.68-.019,4.175,0,.4.26.877,1.022.724A15.166,15.166,0,0,0,29.739,15.747,15.062,15.062,0,0,0,14.869.5Z" transform="translate(0 -0.5)" fill="#212121"/>
</svg>
