<svg id="instagram" xmlns="http://www.w3.org/2000/svg" width="29.739" height="29.739" viewBox="0 0 29.739 29.739">
  <path id="패스_9" data-name="패스 9" d="M212.692,209.846A2.846,2.846,0,1,1,209.846,207,2.846,2.846,0,0,1,212.692,209.846Zm0,0" transform="translate(-194.977 -194.977)" fill="#f54848"/>
  <path id="패스_10" data-name="패스 10" d="M149.141,137.453a2.828,2.828,0,0,0-1.62-1.62,4.724,4.724,0,0,0-1.585-.294c-.9-.041-1.171-.05-3.45-.05s-2.55.009-3.45.05a4.727,4.727,0,0,0-1.585.294,2.829,2.829,0,0,0-1.621,1.62,4.726,4.726,0,0,0-.294,1.586c-.041.9-.05,1.17-.05,3.45s.009,2.55.05,3.45a4.724,4.724,0,0,0,.294,1.585,2.828,2.828,0,0,0,1.62,1.62,4.718,4.718,0,0,0,1.585.294c.9.041,1.17.05,3.45.05s2.55-.009,3.45-.05a4.718,4.718,0,0,0,1.585-.294,2.827,2.827,0,0,0,1.62-1.62,4.729,4.729,0,0,0,.294-1.585c.041-.9.05-1.171.05-3.45s-.009-2.55-.05-3.45A4.718,4.718,0,0,0,149.141,137.453Zm-6.656,9.42a4.384,4.384,0,1,1,4.384-4.384A4.384,4.384,0,0,1,142.485,146.873Zm4.558-7.918a1.025,1.025,0,1,1,1.025-1.025A1.025,1.025,0,0,1,147.042,138.955Zm0,0" transform="translate(-127.615 -127.619)" fill="#f54848"/>
  <path id="패스_11" data-name="패스 11" d="M14.869,0A14.869,14.869,0,1,0,29.739,14.869,14.871,14.871,0,0,0,14.869,0Zm8.487,18.39a6.264,6.264,0,0,1-.4,2.073,4.366,4.366,0,0,1-2.5,2.5,6.269,6.269,0,0,1-2.072.4c-.911.042-1.2.052-3.52.052s-2.61-.01-3.52-.052a6.269,6.269,0,0,1-2.072-.4,4.366,4.366,0,0,1-2.5-2.5,6.263,6.263,0,0,1-.4-2.072c-.042-.911-.052-1.2-.052-3.52s.01-2.61.052-3.52a6.265,6.265,0,0,1,.4-2.073,4.369,4.369,0,0,1,2.5-2.5,6.27,6.27,0,0,1,2.073-.4c.911-.042,1.2-.052,3.52-.052s2.61.01,3.52.052a6.271,6.271,0,0,1,2.073.4,4.367,4.367,0,0,1,2.5,2.5,6.264,6.264,0,0,1,.4,2.073c.042.911.051,1.2.051,3.52S23.4,17.479,23.356,18.39Zm0,0" fill="#f54848"/>
</svg>
